<svg width="96" height="84" viewBox="0 0 96 84" fill="none" xmlns="http://www.w3.org/2000/svg">
<path d="M75.9688 38.5666V18.7396C75.9688 17.9303 75.4628 17.2226 74.7551 16.8175L38.844 0.227565C38.2372 -0.0758548 37.6304 -0.0758548 37.0236 0.227565L1.21368 16.8175C0.505933 17.2225 0 17.9302 0 18.7396V59.9109C0 60.7202 0.505933 61.428 1.21368 61.8331L37.0236 78.5238C37.6304 78.8272 38.2372 78.8272 38.844 78.5238L53.1082 71.8472C56.9524 79.0297 64.5392 83.9859 73.2386 83.9859C85.7824 83.9859 95.9991 73.7691 95.9991 61.2254C96.1 49.4916 87.2996 39.8811 75.9699 38.566L75.9688 38.5666ZM37.9334 5.58911L49.3644 10.8495L20.3321 24.4045L8.9011 19.1441L37.9334 5.58911ZM35.3035 71.8475L5.25959 57.8883V23.1911L18.1068 29.1593L18.1061 40.9947C18.1061 42.4109 19.3198 43.6246 20.736 43.6246C22.1523 43.6246 23.366 42.411 23.366 40.9947V31.5874L35.3022 37.1513L35.3035 71.8475ZM37.9334 32.5983L26.5024 27.3379L55.6358 13.8839L67.0669 19.1443L37.9334 32.5983ZM51.1849 66.8908L40.5631 71.8477V37.1505L70.607 23.1906V38.5668C59.3785 39.8813 50.4766 49.4918 50.4766 61.2261C50.4766 63.1483 50.78 65.0703 51.1844 66.8915L51.1849 66.8908ZM73.3385 78.7262C63.627 78.7262 55.8383 70.8359 55.8383 61.2261C55.8383 51.6156 63.627 43.6245 73.3385 43.6245C83.05 43.6245 90.8386 51.5148 90.8386 61.2256C90.8386 70.9371 82.9483 78.7264 73.3385 78.7264V78.7262Z" fill="#333333"/>
<path d="M81.0322 53.5377C80.0203 52.5258 78.3008 52.5258 77.2895 53.5377L73.3444 57.4829L69.2984 53.5377C68.2866 52.5258 66.567 52.5258 65.5558 53.5377C64.5439 54.5496 64.5439 56.2692 65.5558 57.2804L69.5009 61.2255L65.5558 65.1707C64.5439 66.1826 64.5439 67.9021 65.5558 68.9133C66.0617 69.4193 66.7695 69.7227 67.3763 69.7227C68.0847 69.7227 68.6915 69.4193 69.1967 68.9133L73.1419 64.9682L77.0871 68.9133C77.593 69.4193 78.3007 69.7227 78.9075 69.7227C79.616 69.7227 80.2228 69.4193 80.728 68.9133C81.7399 67.9015 81.7399 66.1819 80.728 65.1707L76.9861 61.2255L80.9312 57.2804C82.044 56.1676 82.0441 54.5496 81.0322 53.5377Z" fill="#333333"/>
</svg>
