<svg width="28" height="28" viewBox="0 0 28 28" fill="none" xmlns="http://www.w3.org/2000/svg">
<circle cx="14" cy="14" r="14" fill="#F2F2F2"/>
<mask id="mask0_642_3756" style="mask-type:alpha" maskUnits="userSpaceOnUse" x="6" y="6" width="16" height="16">
<rect x="6" y="6" width="16" height="16" fill="#4F4F4F"/>
</mask>
<g mask="url(#mask0_642_3756)">
<path d="M18 20.6666C17.4444 20.6666 16.9722 20.4721 16.5833 20.0833C16.1944 19.6944 16 19.2221 16 18.6666C16 18.5888 16.0056 18.5081 16.0167 18.4246C16.0278 18.3415 16.0444 18.2666 16.0667 18.1999L11.3667 15.4666C11.1778 15.6333 10.9667 15.7637 10.7333 15.8579C10.5 15.9526 10.2556 15.9999 10 15.9999C9.44444 15.9999 8.97222 15.8055 8.58333 15.4166C8.19444 15.0277 8 14.5555 8 13.9999C8 13.4444 8.19444 12.9721 8.58333 12.5833C8.97222 12.1944 9.44444 11.9999 10 11.9999C10.2556 11.9999 10.5 12.047 10.7333 12.1413C10.9667 12.2359 11.1778 12.3666 11.3667 12.5333L16.0667 9.79992C16.0444 9.73325 16.0278 9.65836 16.0167 9.57525C16.0056 9.4917 16 9.41103 16 9.33325C16 8.7777 16.1944 8.30547 16.5833 7.91659C16.9722 7.5277 17.4444 7.33325 18 7.33325C18.5556 7.33325 19.0278 7.5277 19.4167 7.91659C19.8056 8.30547 20 8.7777 20 9.33325C20 9.88881 19.8056 10.361 19.4167 10.7499C19.0278 11.1388 18.5556 11.3333 18 11.3333C17.7444 11.3333 17.5 11.2859 17.2667 11.1913C17.0333 11.097 16.8222 10.9666 16.6333 10.7999L11.9333 13.5333C11.9556 13.5999 11.9722 13.6748 11.9833 13.7579C11.9944 13.8415 12 13.9221 12 13.9999C12 14.0777 11.9944 14.1581 11.9833 14.2413C11.9722 14.3248 11.9556 14.3999 11.9333 14.4666L16.6333 17.1999C16.8222 17.0333 17.0333 16.9026 17.2667 16.8079C17.5 16.7137 17.7444 16.6666 18 16.6666C18.5556 16.6666 19.0278 16.861 19.4167 17.2499C19.8056 17.6388 20 18.111 20 18.6666C20 19.2221 19.8056 19.6944 19.4167 20.0833C19.0278 20.4721 18.5556 20.6666 18 20.6666Z" fill="#4F4F4F"/>
</g>
</svg>
