<svg width="147" height="115" viewBox="0 0 147 115" fill="none" xmlns="http://www.w3.org/2000/svg">
<path d="M63.6489 114.982C69.5042 114.982 74.2509 110.23 74.2509 104.368C74.2509 98.5059 69.5042 93.7537 63.6489 93.7537C57.7936 93.7537 53.0469 98.5059 53.0469 104.368C53.0469 110.23 57.7936 114.982 63.6489 114.982Z" fill="#BDBDBD"/>
<path d="M112.555 114.982C118.41 114.982 123.157 110.23 123.157 104.368C123.157 98.5059 118.41 93.7537 112.555 93.7537C106.7 93.7537 101.953 98.5059 101.953 104.368C101.953 110.23 106.7 114.982 112.555 114.982Z" fill="#BDBDBD"/>
<path d="M137.521 17.3984H133.588C132.049 17.3984 130.339 17.3984 128.8 17.3984H53.0468L51.8498 13.632C49.4558 5.58558 42.1028 0.107178 33.7238 0.107178H9.27082C4.14082 0.107178 0.20782 4.55838 0.72082 9.69438C1.23382 14.1456 5.16682 17.3984 9.78382 17.3984H23.6348C27.9098 17.3984 31.8428 20.3088 33.0398 24.4176L35.9468 34.176C35.9468 34.3472 35.9468 34.5184 35.9468 34.5184L48.2588 75.264C50.3108 81.9408 56.4668 86.5632 63.4778 86.5632H116.488C123.67 86.5632 129.997 81.7696 131.707 74.7504L140.257 34.176C143.335 33.1488 145.9 30.4096 146.242 26.9856C146.584 21.8496 142.48 17.3984 137.521 17.3984ZM90.3248 73.2096C78.6968 73.2096 69.1208 63.7936 69.1208 51.9808C69.1208 40.3392 78.5258 30.752 90.3248 30.752C101.953 30.752 111.529 40.168 111.529 51.9808C111.529 63.7936 102.124 73.2096 90.3248 73.2096Z" fill="#BDBDBD"/>
<path d="M95.2845 51.9807L100.756 46.5023C101.782 45.4751 101.782 43.7631 100.756 42.7359L99.7305 41.5375C98.7045 40.5103 96.9945 40.5103 95.9685 41.5375L90.6675 46.8447L85.3665 41.5375C84.3405 40.5103 82.6305 40.5103 81.6045 41.5375L80.0655 42.7359C79.0395 43.7631 79.0395 45.4751 80.0655 46.5023L85.3665 51.8095L79.8945 57.2879C78.8685 58.3151 78.8685 60.0271 79.8945 61.0543L80.9205 62.0815C81.9465 63.1087 83.6565 63.1087 84.6825 62.0815L90.1545 56.6031L95.6265 62.0815C96.6525 63.1087 98.3625 63.1087 99.3885 62.0815L100.414 61.0543C101.44 60.0271 101.44 58.3151 100.414 57.2879L95.2845 51.9807Z" fill="#BDBDBD"/>
</svg>
