<svg width="51" height="51" viewBox="0 0 51 51" fill="none" xmlns="http://www.w3.org/2000/svg">
<rect x="0.5" y="0.5" width="50" height="50" rx="3.5" fill="#FFFBF3"/>
<rect x="0.5" y="0.5" width="50" height="50" rx="3.5" stroke="#5A5A5A"/>
<path d="M25.0405 14.0707C25.2138 13.6669 25.7862 13.6669 25.9595 14.0706L28.4852 19.956C28.5576 20.1246 28.7164 20.24 28.8991 20.2567L35.2769 20.8402C35.7144 20.8802 35.8913 21.4246 35.5609 21.7141L30.7441 25.9349C30.6061 26.0558 30.5454 26.2426 30.586 26.4215L32.0019 32.6674C32.0991 33.0959 31.636 33.4324 31.2585 33.2076L25.7558 29.9308C25.5982 29.837 25.4018 29.837 25.2442 29.9308L19.7415 33.2076C19.364 33.4324 18.9009 33.0959 18.9981 32.6674L20.414 26.4215C20.4546 26.2426 20.3939 26.0558 20.2559 25.9349L15.4391 21.7141C15.1087 21.4246 15.2855 20.8802 15.7231 20.8402L22.1009 20.2567C22.2836 20.24 22.4424 20.1246 22.5148 19.956L25.0405 14.0707Z" fill="#FFBF00"/>
</svg>
