<svg width="51" height="51" viewBox="0 0 51 51" fill="none" xmlns="http://www.w3.org/2000/svg">
<path d="M48.8835 25.9994H34.6448C34.6196 23.6738 33.6958 21.4521 32.0739 19.8166C30.452 18.1811 28.2629 17.2638 25.9817 17.2638C23.7005 17.2638 21.5114 18.1811 19.8895 19.8166C18.2676 21.4521 17.3438 23.6738 17.3187 25.9994H3.11475C3.08679 26.0018 3.05904 25.9928 3.03759 25.9744C3.01614 25.956 3.00276 25.9296 3.00038 25.9011C2.998 25.8726 3.00683 25.8443 3.02492 25.8224C3.04301 25.8005 3.06887 25.7869 3.09683 25.7845L11.3397 24.0686L3.25705 19.8907C3.23478 19.88 3.21691 19.8615 3.20658 19.8387C3.19624 19.8159 3.19408 19.7901 3.20047 19.7658C3.20686 19.7415 3.22141 19.7203 3.24157 19.7058C3.26173 19.6913 3.28623 19.6845 3.31081 19.6865L12.4006 20.3008L5.58238 14.0937C5.5624 14.0777 5.54878 14.0548 5.54405 14.0293C5.53932 14.0038 5.54378 13.9775 5.55663 13.9551C5.56947 13.9327 5.58982 13.9158 5.61393 13.9075C5.63803 13.8992 5.66427 13.9001 5.68779 13.91L14.1993 16.533L9.30227 9.11137C9.28839 9.09069 9.28204 9.0657 9.28431 9.04074C9.28658 9.01578 9.29735 8.99241 9.31473 8.97469C9.33212 8.95696 9.35503 8.94599 9.37952 8.94367C9.404 8.94135 9.4285 8.94783 9.4488 8.96199L16.8815 13.9075L14.1543 5.27572C14.1454 5.25199 14.145 5.2258 14.1532 5.20182C14.1615 5.17783 14.1778 5.1576 14.1993 5.14472C14.2208 5.13183 14.246 5.12713 14.2706 5.13143C14.2952 5.13574 14.3174 5.14879 14.3335 5.16825L20.0224 11.5692L19.8211 2.84902C19.8183 2.82349 19.8247 2.79781 19.8389 2.77662C19.8531 2.75543 19.8743 2.74014 19.8987 2.73351C19.923 2.72689 19.9489 2.72937 19.9716 2.7405C19.9943 2.75164 20.0123 2.77069 20.0224 2.79421L23.5394 10.6121L23.5394 10.7903L25.8958 2.10747C25.8958 2.07897 25.9069 2.05163 25.9267 2.03148C25.9464 2.01132 25.9733 2 26.0012 2C26.0292 2 26.056 2.01132 26.0757 2.03148C26.0955 2.05163 26.1066 2.07897 26.1066 2.10747L27.6393 10.6121L31.9727 2.79421C31.9828 2.77069 32.0008 2.75164 32.0235 2.7405C32.0462 2.72937 32.0721 2.72689 32.0964 2.73351C32.1207 2.74014 32.1419 2.75543 32.1562 2.77662C32.1704 2.79781 32.1767 2.82349 32.174 2.84902L31.4958 12.0797L37.6595 5.1661C37.6755 5.14664 37.6978 5.13359 37.7224 5.12929C37.7469 5.12498 37.7722 5.12968 37.7937 5.14257C37.8152 5.15545 37.8315 5.17568 37.8397 5.19967C37.8479 5.22365 37.8476 5.24984 37.8387 5.27357L34.6448 14.0937L42.5536 8.95769C42.5743 8.9447 42.5988 8.9394 42.6229 8.94268C42.647 8.94597 42.6692 8.95764 42.6858 8.97572C42.7024 8.9938 42.7124 9.01718 42.7141 9.0419C42.7157 9.06662 42.709 9.09116 42.6949 9.11137L37.6595 17.2638L46.3094 13.91C46.3329 13.9001 46.3591 13.8992 46.3832 13.9075C46.4073 13.9158 46.4277 13.9327 46.4405 13.9551C46.4534 13.9775 46.4578 14.0038 46.4531 14.0293C46.4484 14.0548 46.4348 14.0777 46.4148 14.0937L39.4521 19.8907L48.6864 19.6865C48.7109 19.6845 48.7354 19.6913 48.7556 19.7058C48.7758 19.7203 48.7903 19.7415 48.7967 19.7658C48.8031 19.7901 48.8009 19.8159 48.7906 19.8387C48.7802 19.8615 48.7624 19.88 48.7401 19.8907L40.513 23.2791L48.9056 25.7855C48.9194 25.787 48.9327 25.7913 48.9449 25.798C48.9571 25.8047 48.9678 25.8139 48.9765 25.8248C48.9852 25.8358 48.9917 25.8484 48.9957 25.862C48.9996 25.8755 49.0009 25.8897 48.9994 25.9038C48.998 25.9178 48.9938 25.9314 48.9872 25.9438C48.9806 25.9562 48.9716 25.9672 48.9609 25.9761C48.9501 25.9849 48.9377 25.9916 48.9245 25.9956C48.9112 25.9996 48.8972 26.0009 48.8835 25.9994Z" fill="#FFAF19"/>
<mask id="mask0_1460_2975" style="mask-type:alpha" maskUnits="userSpaceOnUse" x="0" y="0" width="51" height="51">
<circle cx="25.5" cy="25.5" r="25.5" fill="#D9D9D9"/>
</mask>
<g mask="url(#mask0_1460_2975)">
<path d="M26.183 38.9339L32.5702 43.2464C32.6407 43.2941 32.6994 43.3626 32.7401 43.4451C32.7809 43.5277 32.8023 43.6213 32.8023 43.7166C32.8023 43.812 32.7809 43.9056 32.7401 43.9881C32.6994 44.0707 32.6407 44.1392 32.5702 44.1869L26.183 48.4972C26.1124 48.5449 26.0323 48.57 25.9508 48.57C25.8693 48.57 25.7892 48.5449 25.7186 48.4972L19.3305 44.1847C19.26 44.137 19.2013 44.0685 19.1606 43.986C19.1198 43.9034 19.0984 43.8098 19.0984 43.7145C19.0984 43.6192 19.1198 43.5255 19.1606 43.443C19.2013 43.3604 19.26 43.2919 19.3305 43.2442L25.7186 38.9317C25.7894 38.8844 25.8696 38.8597 25.9511 38.86C26.0326 38.8604 26.1126 38.8859 26.183 38.9339Z" fill="white"/>
<path d="M34.2317 33.5039L40.6198 37.8164C40.6904 37.864 40.749 37.9326 40.7898 38.0151C40.8305 38.0977 40.852 38.1913 40.852 38.2866C40.852 38.3819 40.8305 38.4756 40.7898 38.5581C40.749 38.6407 40.6904 38.7092 40.6198 38.7569L34.2317 43.0672C34.1611 43.1149 34.0811 43.14 33.9995 43.14C33.918 43.14 33.8379 43.1149 33.7673 43.0672L27.3802 38.7569C27.3096 38.7092 27.251 38.6407 27.2102 38.5581C27.1695 38.4756 27.148 38.3819 27.148 38.2866C27.148 38.1913 27.1695 38.0977 27.2102 38.0151C27.251 37.9326 27.3096 37.864 27.3802 37.8164L33.7673 33.5039C33.8379 33.4562 33.918 33.4311 33.9995 33.4311C34.0811 33.4311 34.1611 33.4562 34.2317 33.5039Z" fill="white"/>
<path d="M18.1334 33.5039L24.5214 37.8164C24.592 37.864 24.6506 37.9326 24.6914 38.0151C24.7322 38.0977 24.7536 38.1913 24.7536 38.2866C24.7536 38.3819 24.7322 38.4756 24.6914 38.5581C24.6506 38.6407 24.592 38.7092 24.5214 38.7569L18.1334 43.0672C18.0628 43.1149 17.9827 43.14 17.9012 43.14C17.8196 43.14 17.7396 43.1149 17.669 43.0672L11.2818 38.7569C11.2112 38.7092 11.1526 38.6407 11.1119 38.5581C11.0711 38.4756 11.0496 38.3819 11.0496 38.2866C11.0496 38.1913 11.0711 38.0977 11.1119 38.0151C11.1526 37.9326 11.2112 37.864 11.2818 37.8164L17.669 33.5039C17.7396 33.4562 17.8196 33.4311 17.9012 33.4311C17.9827 33.4311 18.0628 33.4562 18.1334 33.5039Z" fill="white"/>
<path d="M42.2814 28.0738L48.6695 32.3864C48.74 32.434 48.7987 32.5026 48.8394 32.5851C48.8802 32.6677 48.9016 32.7613 48.9016 32.8566C48.9016 32.9519 48.8802 33.0455 48.8394 33.1281C48.7987 33.2106 48.74 33.2792 48.6695 33.3268L42.2814 37.6372C42.2108 37.6848 42.1307 37.7099 42.0492 37.7099C41.9677 37.7099 41.8876 37.6848 41.817 37.6372L35.4298 33.3247C35.3592 33.277 35.3006 33.2085 35.2599 33.1259C35.2191 33.0434 35.1977 32.9497 35.1977 32.8544C35.1977 32.7591 35.2191 32.6655 35.2599 32.5829C35.3006 32.5004 35.3592 32.4318 35.4298 32.3842L41.817 28.0717C41.8878 28.0243 41.9679 27.9996 42.0494 28C42.1309 28.0004 42.2109 28.0259 42.2814 28.0738Z" fill="white"/>
<path d="M26.183 28.0738L32.5702 32.3864C32.6407 32.434 32.6994 32.5026 32.7401 32.5851C32.7809 32.6677 32.8023 32.7613 32.8023 32.8566C32.8023 32.9519 32.7809 33.0455 32.7401 33.1281C32.6994 33.2106 32.6407 33.2792 32.5702 33.3268L26.183 37.6372C26.1124 37.6848 26.0323 37.7099 25.9508 37.7099C25.8693 37.7099 25.7892 37.6848 25.7186 37.6372L19.3305 33.3247C19.26 33.277 19.2013 33.2085 19.1606 33.1259C19.1198 33.0434 19.0984 32.9497 19.0984 32.8544C19.0984 32.7591 19.1198 32.6655 19.1606 32.5829C19.2013 32.5004 19.26 32.4318 19.3305 32.3842L25.7186 28.0717C25.7894 28.0243 25.8696 27.9996 25.9511 28C26.0326 28.0004 26.1126 28.0259 26.183 28.0738Z" fill="white"/>
<path d="M10.0837 28.0738L16.4718 32.3864C16.5424 32.434 16.601 32.5026 16.6418 32.5851C16.6825 32.6677 16.704 32.7613 16.704 32.8566C16.704 32.9519 16.6825 33.0455 16.6418 33.1281C16.601 33.2106 16.5424 33.2792 16.4718 33.3268L10.0837 37.6372C10.0131 37.6848 9.93303 37.7099 9.85151 37.7099C9.77 37.7099 9.68992 37.6848 9.61932 37.6372L3.23217 33.3268C3.16158 33.2792 3.10296 33.2106 3.06221 33.1281C3.02146 33.0455 3 32.9519 3 32.8566C3 32.7613 3.02146 32.6677 3.06221 32.5851C3.10296 32.5026 3.16158 32.434 3.23217 32.3864L9.61932 28.0738C9.68992 28.0262 9.77 28.0011 9.85151 28.0011C9.93303 28.0011 10.0131 28.0262 10.0837 28.0738Z" fill="white"/>
</g>
</svg>
