<svg width="82" height="79" viewBox="0 0 82 79" fill="none" xmlns="http://www.w3.org/2000/svg">
<path fill-rule="evenodd" clip-rule="evenodd" d="M68.9989 1.96532L65.9513 2.38403L66.4467 0H17.3807L16.8156 2.17231C16.1904 1.93723 15.451 1.65592 14.7028 1.37395L13.6423 0.974782L1.64577 19.4622L3.0895 23.6278C2.73939 23.4441 2.3744 23.2592 1.9959 23.0756L2.11757e-06 22.0701V41.9595C2.11757e-06 43.1219 0.416347 44.2484 1.17809 45.1497C2.86513 47.158 4.39333 48.9631 5.49917 50.2505L5.87158 50.6979L6.45825 50.7324C7.73839 50.8262 9.04159 50.905 10.2528 50.9838L6.33592 52.4945L0.29199 69.1252L0.292666 69.1258C0.0980073 69.6637 -0.000671378 70.2289 3.43768e-06 70.798V73.9459C0.00135532 75.286 0.55491 76.5708 1.53902 77.5183C2.52245 78.4658 3.85606 78.9985 5.24704 78.9998H34.3039C34.7156 79.0037 35.1265 78.9574 35.5266 78.863C44.3816 76.8312 52.5403 74.9213 55.9805 74.1106L56.7557 73.9335L56.9707 73.1977C57.1052 72.7601 57.2316 72.3095 57.3735 71.8595L58.0474 74.1452L68.2271 78.5583V78.5577C68.9057 78.852 69.641 79.0031 70.3853 78.9998H76.7536H76.7529C78.1439 78.9978 79.4775 78.4652 80.461 77.5177C81.4444 76.5702 81.998 75.2861 82 73.9459V64.2875C81.9966 63.592 81.8479 62.905 81.5613 62.2669L74.5955 48.1569C74.5752 48.071 74.5509 47.9928 74.538 47.9179L74.3677 47.3423L70.4022 45.515L74.3272 45.0442L74.6483 44.3826V44.382C74.7287 44.1931 74.8382 44.0173 74.9741 43.861L80.8131 36.9747C81.5789 36.0728 81.998 34.9449 82 33.78V22.0039L68.9989 1.96532ZM63.1138 2.638L62.5176 5.5163L67.6255 4.81171L78.1708 21.0666L50.5691 21.0673V2.63822L63.1138 2.638ZM40.9988 2.638H47.83V21.0671H34.1635V2.638H40.9988ZM34.1635 23.6976H35.5328C35.5328 24.4244 36.1438 25.0137 36.8982 25.0137C37.6525 25.0137 38.2635 24.4243 38.2635 23.6976H43.7341C43.7341 24.4244 44.3451 25.0137 45.0994 25.0137C45.8538 25.0137 46.4648 24.4243 46.4648 23.6976H47.8294L47.8301 44.2172L46.4654 42.9109L40.9987 48.1802L35.532 42.9109L34.1627 44.2172L34.1635 23.6976ZM14.7513 4.22668C16.1132 4.74046 17.2669 5.17416 17.2669 5.17416L18.7134 5.72246L19.5177 2.63711H31.4256V21.0662H5.08007L4.64412 19.8055L14.7513 4.22668ZM78.6944 35.3052L72.8553 42.1875V42.1882C72.7431 42.321 72.6397 42.4604 72.5458 42.6063L60.7974 44.0167L72.0755 49.2002C72.0829 49.2275 72.0958 49.2542 72.1072 49.2861L79.0689 63.3452C79.1946 63.6435 79.2589 63.9632 79.2595 64.2855V73.944C79.2595 74.5854 78.9953 75.2002 78.5255 75.6547C78.0551 76.1086 77.4177 76.3645 76.752 76.3671H70.3836H70.3843C70.0274 76.3671 69.6739 76.2942 69.3488 76.1529L60.3275 72.2452L57.4333 62.4677L56.093 66.7713C56.093 66.7713 55.3001 69.3084 54.5688 71.7269C50.777 72.6164 43.1414 74.4051 34.8953 76.3002V76.3009C34.7013 76.3458 34.5026 76.3686 34.3032 76.3673H5.24635C5.06995 76.3667 4.8942 76.3484 4.72186 76.3133L7.7985 73.3536L7.79783 73.353C8.33178 72.8372 8.33111 72.0024 7.79648 71.4874C7.26185 70.9723 6.39534 70.9716 5.8601 71.4861L2.78813 74.4489L2.78745 74.4482C2.7496 74.2828 2.73 74.1142 2.73 73.9442V70.7964C2.73068 70.5235 2.77867 70.252 2.87194 69.9941L8.5089 54.4887L22.5852 49.0637L16.4825 48.7185C16.4825 48.7185 11.8248 48.4561 7.23281 48.1468C6.18044 46.8985 4.79828 45.2698 3.29915 43.4883C2.93484 43.0552 2.73411 42.5154 2.73004 41.9573V26.4221C3.96558 27.0453 4.81453 27.4868 4.81453 27.4868L7.85068 29.0685L5.98992 23.6968H31.4253V50.5794L35.5327 46.628L40.9987 51.8942L46.4647 46.6274L50.5695 50.5787V23.6978H79.2578V33.7795C79.2592 34.3363 79.0598 34.8761 78.6928 35.3072L78.6944 35.3052ZM42.3651 3.93995C42.3712 4.47457 42.0413 4.95906 41.531 5.16744C41.02 5.37582 40.4293 5.26642 40.0353 4.89003C39.6412 4.51429 39.5216 3.94645 39.7331 3.45221C39.9447 2.95797 40.4442 2.63563 40.9991 2.63628C41.7493 2.63498 42.3597 3.21714 42.3651 3.93995ZM38.2638 7.89466C38.2658 8.42732 37.9339 8.9092 37.4229 9.11367C36.9126 9.3188 36.3239 9.20679 35.9326 8.82976C35.5419 8.45273 35.425 7.88554 35.6379 7.3939C35.8501 6.9016 36.3503 6.58187 36.9032 6.58382C37.6521 6.58903 38.2583 7.17315 38.2638 7.89466ZM38.2638 15.8032C38.2624 16.3352 37.9285 16.8145 37.4175 17.0164C36.9066 17.2189 36.3192 17.1043 35.9299 16.7266C35.5406 16.3496 35.4257 15.783 35.6386 15.292C35.8515 14.801 36.351 14.482 36.9032 14.4839C37.2655 14.4839 37.6129 14.6233 37.8683 14.8707C38.1238 15.1182 38.2665 15.4542 38.2638 15.8032ZM42.3651 11.8447C42.3651 12.3774 42.0312 12.8579 41.5195 13.0611C41.0086 13.2643 40.4205 13.151 40.0299 12.7739C39.6392 12.3969 39.5222 11.8297 39.7345 11.3381C39.9467 10.8458 40.4462 10.5254 40.9991 10.5254C41.7541 10.528 42.3644 11.1173 42.3651 11.8447ZM46.465 7.89466C46.467 8.42667 46.1365 8.90725 45.6276 9.11237C45.1186 9.31815 44.5313 9.2081 44.1386 8.83366C43.7466 8.45988 43.6269 7.89466 43.8358 7.40236C44.044 6.91007 44.5401 6.58708 45.0923 6.58382C45.8466 6.58121 46.461 7.16793 46.465 7.89466ZM46.465 15.8032C46.4637 16.3339 46.1311 16.8126 45.6215 17.0151C45.1125 17.2183 44.5259 17.1062 44.1359 16.7312C43.7452 16.3561 43.6276 15.7922 43.8365 15.3005C44.0453 14.8095 44.5407 14.4872 45.0923 14.4839C45.4566 14.48 45.8074 14.6181 46.0662 14.8662C46.3244 15.1143 46.4684 15.4516 46.465 15.8032ZM42.3651 19.7508C42.3624 20.2828 42.0271 20.7614 41.5155 20.9633C41.0045 21.1651 40.4171 21.0499 40.0278 20.6722C39.6378 20.2952 39.5229 19.7286 39.7351 19.237C39.9481 18.7453 40.4462 18.4256 40.9991 18.4262C41.3627 18.4262 41.7115 18.5656 41.9683 18.8143C42.2245 19.0631 42.3678 19.3998 42.3651 19.7508ZM38.2638 31.5925C38.2638 32.1252 37.9312 32.6058 37.4202 32.809C36.9093 33.0128 36.3212 32.8995 35.9312 32.5224C35.5412 32.1447 35.425 31.5782 35.6379 31.0866C35.8508 30.5949 36.3503 30.2758 36.9032 30.2778C37.6541 30.283 38.2611 30.8691 38.2638 31.5925ZM42.3651 27.6508C42.3658 28.1842 42.0332 28.6647 41.5216 28.8692C41.0106 29.0737 40.4219 28.961 40.0305 28.584C39.6392 28.207 39.5222 27.6398 39.7345 27.1475C39.9467 26.6545 40.4455 26.3342 40.9991 26.3348C41.3614 26.3342 41.7095 26.4722 41.9656 26.7197C42.2218 26.9665 42.3658 27.3018 42.3651 27.6508ZM46.465 31.5925C46.4657 32.1239 46.1338 32.6038 45.6249 32.8077C45.1152 33.0121 44.5286 32.9014 44.1372 32.5263C43.7459 32.1519 43.6269 31.5873 43.8358 31.095C44.0446 30.6034 44.54 30.2811 45.0923 30.2778C45.4552 30.2765 45.804 30.4146 46.0615 30.6614C46.319 30.9075 46.4643 31.2429 46.465 31.5925ZM42.3651 35.5511C42.3651 36.0844 42.0312 36.5643 41.5195 36.7675C41.0086 36.9713 40.4205 36.858 40.0299 36.4803C39.6392 36.1033 39.5222 35.5367 39.7345 35.0445C39.9467 34.5522 40.4462 34.2318 40.9991 34.2324C41.3621 34.2318 41.7101 34.3711 41.9663 34.6186C42.2225 34.866 42.3664 35.2014 42.3651 35.5511ZM38.2638 39.5011C38.2624 40.0338 37.9285 40.5124 37.4175 40.7149C36.9066 40.9168 36.3192 40.8028 35.9299 40.4251C35.5406 40.0474 35.4257 39.4809 35.6386 38.9899C35.8515 38.4989 36.351 38.1805 36.9032 38.1824C37.6568 38.1857 38.2644 38.7757 38.2638 39.5011ZM42.3651 43.4447C42.3678 43.978 42.0359 44.4605 41.5249 44.6663C41.014 44.8714 40.4246 44.76 40.0319 44.383C39.6399 44.0066 39.5222 43.4394 39.7338 42.9465C39.946 42.4529 40.4455 42.1319 40.9991 42.1325C41.752 42.1319 42.3631 42.7192 42.3651 43.4447ZM46.465 39.5011C46.4637 40.0325 46.1311 40.5105 45.6215 40.7136C45.1125 40.9168 44.5259 40.8041 44.1359 40.4297C43.7452 40.0546 43.6276 39.49 43.8365 38.9991C44.0453 38.5074 44.5407 38.1851 45.0923 38.1825C45.4559 38.1805 45.806 38.3186 46.0635 38.566C46.3217 38.8141 46.4664 39.1508 46.465 39.5011Z" fill="black"/>
</svg>
