<svg width="96" height="96" viewBox="0 0 96 96" fill="none" xmlns="http://www.w3.org/2000/svg">
<g clip-path="url(#clip0_642_5313)">
<path d="M42.5502 74.9905C38.8077 78.4489 33.6314 79.2235 29.0402 77.0128C27.3805 76.2135 25.9799 75.1099 24.8834 73.788L18.6319 87.615C18.3475 88.2441 18.6651 88.7183 18.8147 88.8928C18.9644 89.0672 19.3845 89.4533 20.0494 89.2684L24.6004 88.0016C25.119 87.8575 25.6433 87.7879 26.1602 87.7879C28.341 87.7879 30.3936 89.0222 31.3819 91.0676L33.4373 95.3211C33.7375 95.9426 34.3005 96.0047 34.5349 96C34.7648 95.997 35.3303 95.9224 35.6145 95.2933L45.5582 73.2988C44.4657 73.6133 43.431 74.1763 42.5502 74.9905Z" fill="#4F4F4F"/>
<path d="M77.3683 87.6148L71.1169 73.7878C70.0204 75.1099 68.6198 76.2135 66.96 77.0126C62.3687 79.2232 57.1926 78.4487 53.4501 74.9902C52.5692 74.1761 51.5346 73.6131 50.4417 73.2986L60.3853 95.2931C60.6698 95.9224 61.2353 95.9968 61.465 95.9998C61.6993 96.0045 62.2624 95.9424 62.5626 95.3209L64.618 91.0674C65.6061 89.022 67.6588 87.7877 69.8396 87.7877C70.3566 87.7877 70.881 87.8572 71.3995 88.0014L75.9505 89.2682C76.6153 89.4532 77.0357 89.0672 77.1851 88.8926C77.3351 88.7179 77.6528 88.2437 77.3683 87.6148Z" fill="#4F4F4F"/>
<path d="M82.279 38.9608C77.0871 35.4058 75.4761 28.3474 78.6115 22.8917C80.496 19.6121 79.5152 16.3714 77.9689 14.4321C76.4224 12.4933 73.4809 10.8161 69.8646 11.9233C63.8489 13.7659 57.3252 10.6249 55.0144 4.77187C53.6254 1.25363 50.4801 0 48.0001 0C45.52 0 42.3747 1.25363 40.9857 4.77206C38.6749 10.6252 32.1518 13.7659 26.1355 11.9235C22.5188 10.8165 19.5779 12.4933 18.0312 14.4322C16.4849 16.3716 15.5041 19.6119 17.3886 22.8919C20.524 28.3474 18.913 35.406 13.7211 38.961C10.6 41.0983 10.0778 44.4435 10.6294 46.8615C11.1811 49.2795 13.1033 52.0667 16.8426 52.638C23.0627 53.5882 27.5766 59.2485 27.1193 65.5243C26.8441 69.297 29.134 71.7911 31.3684 72.8674C33.6031 73.9434 36.9807 74.1789 39.7587 71.6115C42.0691 69.4764 45.0351 68.4084 47.9999 68.4084C50.9657 68.4084 53.9301 69.4759 56.2409 71.6115C59.0192 74.1791 62.397 73.9436 64.6315 72.8674C66.8659 71.7913 69.1557 69.2972 68.8806 65.5245C68.4233 59.2487 72.9372 53.5884 79.1573 52.638C82.8966 52.0667 84.8185 49.2793 85.3705 46.8615C85.9223 44.4431 85.3997 41.0979 82.279 38.9608ZM48.0001 62.9856C34.3922 62.9856 23.3215 51.9148 23.3215 38.307C23.3215 24.6992 34.3921 13.6282 48.0001 13.6282C61.6081 13.6282 72.6786 24.699 72.6786 38.3068C72.6784 51.9146 61.6079 62.9856 48.0001 62.9856Z" fill="#4F4F4F"/>
<path d="M47.9992 18.2295C36.9284 18.2295 27.9219 27.2362 27.9219 38.3068C27.9219 49.3774 36.9282 58.3841 47.9992 58.3841C59.0701 58.3841 68.0765 49.3774 68.0765 38.3068C68.0765 27.2362 59.0699 18.2295 47.9992 18.2295ZM58.2882 36.3602L45.7929 45.4867C45.3963 45.7764 44.9204 45.9296 44.4359 45.9296C44.3111 45.9296 44.1856 45.9195 44.0608 45.8989C43.4516 45.7982 42.9082 45.4567 42.5531 44.9512L38.8154 39.6296C38.0851 38.5896 38.3362 37.1546 39.3759 36.4243C40.4157 35.694 41.8505 35.9449 42.581 36.9847L44.9716 40.3886L55.5744 32.6445C56.6006 31.8954 58.04 32.1189 58.7892 33.1453C59.5387 34.1713 59.3142 35.6106 58.2882 36.3602Z" fill="#4F4F4F"/>
</g>
<defs>
<clipPath id="clip0_642_5313">
<rect width="96" height="96" fill="white"/>
</clipPath>
</defs>
</svg>
