<svg xmlns="http://www.w3.org/2000/svg" viewBox="0 0 667.55 500.69"><defs><style>.cls-1{}</style></defs><g id="Layer_2" data-name="Layer 2"><g id="Layer_1-2" data-name="Layer 1"><path class="cls-1" d="M550.71,223.14H415.63a82.19,82.19,0,0,0-164.37,0H116.51a1,1,0,0,1-.17-2l87.91-15.06L117.86,166.3a1,1,0,0,1,.51-1.9l94.71,8.75-73.16-60.79a1,1,0,0,1,1-1.71l89.22,33L175.21,66a1,1,0,0,1,1.39-1.39l77.64,54.93-33-89.23a1,1,0,0,1,1.7-1l60.79,73.16L275,7.73a1,1,0,0,1,1.91-.51l39.54,85.87.24.53L332.63.83a1,1,0,0,1,2,0l15.89,92.79.24-.53L390.28,7.22a1,1,0,0,1,1.91.51l-8.75,94.72,60.79-73.16a1,1,0,0,1,1.7,1L413,119.5l77.66-54.93A1,1,0,0,1,492,66l-54.94,77.65,89.23-33a1,1,0,0,1,1,1.71l-73.16,60.79,94.71-8.75a1,1,0,0,1,.51,1.9L463,206.09l87.92,15.06A1,1,0,0,1,550.71,223.14Z"/><path class="cls-1" d="M331.27,411.94,262.5,451.65a5,5,0,0,0,0,8.66L331.27,500a5,5,0,0,0,5,0l68.78-39.71a5,5,0,0,0,0-8.66l-68.78-39.71A5,5,0,0,0,331.27,411.94Z"/><path class="cls-1" d="M417.94,361.94l-68.77,39.71a5,5,0,0,0,0,8.66L417.94,450a5,5,0,0,0,5,0l68.78-39.71a5,5,0,0,0,0-8.66l-68.78-39.71A5,5,0,0,0,417.94,361.94Z"/><path class="cls-1" d="M336.27,411.94l68.78,39.71a5,5,0,0,1,0,8.66L336.27,500a5,5,0,0,1-5,0L262.5,460.31a5,5,0,0,1,0-8.66l68.77-39.71A5,5,0,0,1,336.27,411.94Z"/><path class="cls-1" d="M249.61,361.94l68.77,39.71a5,5,0,0,1,0,8.66L249.61,450a5,5,0,0,1-5,0l-68.78-39.71a5,5,0,0,1,0-8.66l68.78-39.71A5,5,0,0,1,249.61,361.94Z"/><path class="cls-1" d="M504.61,311.94l-68.78,39.71a5,5,0,0,0,0,8.66L504.61,400a5,5,0,0,0,5,0l68.77-39.71a5,5,0,0,0,0-8.66l-68.77-39.71A5,5,0,0,0,504.61,311.94Z"/><path class="cls-1" d="M336.27,311.94l68.78,39.71a5,5,0,0,1,0,8.66L336.27,400a5,5,0,0,1-5,0L262.5,360.31a5,5,0,0,1,0-8.66l68.77-39.71A5,5,0,0,1,336.27,311.94Z"/><path class="cls-1" d="M162.94,311.94l68.78,39.71a5,5,0,0,1,0,8.66L162.94,400a5,5,0,0,1-5,0L89.17,360.31a5,5,0,0,1,0-8.66l68.77-39.71A5,5,0,0,1,162.94,311.94Z"/><path class="cls-1" d="M591.27,261.94,522.5,301.65a5,5,0,0,0,0,8.66L591.27,350a5,5,0,0,0,5,0l68.78-39.71a5,5,0,0,0,0-8.66l-68.78-39.71A5,5,0,0,0,591.27,261.94Z"/><path class="cls-1" d="M422.94,261.94l68.78,39.71a5,5,0,0,1,0,8.66L422.94,350a5,5,0,0,1-5,0l-68.77-39.71a5,5,0,0,1,0-8.66l68.77-39.71A5,5,0,0,1,422.94,261.94Z"/><path class="cls-1" d="M249.61,261.94l68.77,39.71a5,5,0,0,1,0,8.66L249.61,350a5,5,0,0,1-5,0l-68.78-39.71a5,5,0,0,1,0-8.66l68.78-39.71A5,5,0,0,1,249.61,261.94Z"/><path class="cls-1" d="M76.27,261.94l68.78,39.71a5,5,0,0,1,0,8.66L76.27,350a5,5,0,0,1-5,0L2.5,310.31a5,5,0,0,1,0-8.66l68.77-39.71A5,5,0,0,1,76.27,261.94Z"/></g></g></svg>