<svg width="96" height="96" viewBox="0 0 96 96" fill="none" xmlns="http://www.w3.org/2000/svg">
<g clip-path="url(#clip0_642_5326)">
<path d="M7.2 0C5.29044 0 3.45909 0.758569 2.10883 2.10883C0.758569 3.45909 0 5.29044 0 7.2L0 31.2C0 33.1096 0.758569 34.9409 2.10883 36.2912C3.45909 37.6414 5.29044 38.4 7.2 38.4H31.2C33.1096 38.4 34.9409 37.6414 36.2912 36.2912C37.6414 34.9409 38.4 33.1096 38.4 31.2V7.2C38.4 5.29044 37.6414 3.45909 36.2912 2.10883C34.9409 0.758569 33.1096 0 31.2 0L7.2 0ZM63.8064 36.9936C64.2492 37.452 64.7788 37.8177 65.3645 38.0693C65.9501 38.3208 66.5799 38.4533 67.2173 38.4588C67.8546 38.4643 68.4867 38.3429 69.0766 38.1015C69.6665 37.8602 70.2024 37.5038 70.6531 37.0531C71.1038 36.6024 71.4602 36.0665 71.7015 35.4766C71.9429 34.8867 72.0643 34.2546 72.0588 33.6173C72.0533 32.9799 71.9209 32.3501 71.6693 31.7645C71.4177 31.1788 71.052 30.6492 70.5936 30.2064L64.3872 24H84C84.6365 24 85.247 24.2529 85.6971 24.7029C86.1471 25.153 86.4 25.7635 86.4 26.4V43.2C86.4 44.473 86.9057 45.6939 87.8059 46.5941C88.7061 47.4943 89.927 48 91.2 48C92.473 48 93.6939 47.4943 94.5941 46.5941C95.4943 45.6939 96 44.473 96 43.2V26.4C96 23.2174 94.7357 20.1652 92.4853 17.9147C90.2348 15.6643 87.1826 14.4 84 14.4H64.3872L70.5936 8.1936C71.468 7.28831 71.9518 6.07582 71.9408 4.81727C71.9299 3.55873 71.4251 2.35483 70.5351 1.46487C69.6452 0.574912 68.4413 0.070101 67.1827 0.0591646C65.9242 0.0482282 64.7117 0.532041 63.8064 1.4064L49.4064 15.8064C48.5065 16.7065 48.001 17.9272 48.001 19.2C48.001 20.4728 48.5065 21.6935 49.4064 22.5936L63.8064 36.9936ZM32.1936 59.0064C31.2883 58.132 30.0758 57.6482 28.8173 57.6592C27.5587 57.6701 26.3548 58.1749 25.4649 59.0649C24.5749 59.9548 24.0701 61.1587 24.0592 62.4173C24.0482 63.6758 24.532 64.8883 25.4064 65.7936L31.6128 72H12C11.3635 72 10.753 71.7471 10.3029 71.2971C9.85286 70.847 9.6 70.2365 9.6 69.6V52.8C9.6 51.527 9.09429 50.3061 8.19411 49.4059C7.29394 48.5057 6.07304 48 4.8 48C3.52696 48 2.30606 48.5057 1.40589 49.4059C0.505713 50.3061 0 51.527 0 52.8L0 69.6C0 72.7826 1.26428 75.8348 3.51472 78.0853C5.76516 80.3357 8.8174 81.6 12 81.6H31.6128L25.4064 87.8064C24.948 88.2492 24.5823 88.7788 24.3307 89.3645C24.0792 89.9501 23.9467 90.5799 23.9412 91.2173C23.9357 91.8546 24.0571 92.4867 24.2985 93.0766C24.5398 93.6665 24.8962 94.2024 25.3469 94.6531C25.7976 95.1038 26.3335 95.4602 26.9234 95.7015C27.5133 95.9429 28.1454 96.0643 28.7827 96.0588C29.4201 96.0533 30.0499 95.9208 30.6355 95.6693C31.2212 95.4177 31.7508 95.052 32.1936 94.5936L46.5936 80.1936C47.4935 79.2935 47.999 78.0728 47.999 76.8C47.999 75.5272 47.4935 74.3065 46.5936 73.4064L32.1936 59.0064ZM96 88.8C96 90.7096 95.2414 92.5409 93.8912 93.8912C92.5409 95.2414 90.7096 96 88.8 96H64.8C62.8904 96 61.0591 95.2414 59.7088 93.8912C58.3586 92.5409 57.6 90.7096 57.6 88.8V64.8C57.6 62.8904 58.3586 61.0591 59.7088 59.7088C61.0591 58.3586 62.8904 57.6 64.8 57.6H88.8C90.7096 57.6 92.5409 58.3586 93.8912 59.7088C95.2414 61.0591 96 62.8904 96 64.8V88.8Z" fill="#4F4F4F"/>
</g>
<defs>
<clipPath id="clip0_642_5326">
<rect width="96" height="96" fill="white"/>
</clipPath>
</defs>
</svg>
