<svg width="120" height="120" viewBox="0 0 120 120" fill="none" xmlns="http://www.w3.org/2000/svg">
<path d="M45 92.5C45 94.9723 44.2669 97.389 42.8934 99.4446C41.5199 101.5 39.5676 103.102 37.2835 104.048C34.9995 104.995 32.4861 105.242 30.0614 104.76C27.6366 104.278 25.4093 103.087 23.6612 101.339C21.913 99.5907 20.7225 97.3634 20.2402 94.9386C19.7579 92.5139 20.0054 90.0005 20.9515 87.7165C21.8976 85.4324 23.4998 83.4801 25.5554 82.1066C27.611 80.7331 30.0277 80 32.5 80C35.8152 80 38.9946 81.317 41.3388 83.6612C43.683 86.0054 45 89.1848 45 92.5ZM87.5 80C85.0277 80 82.611 80.7331 80.5554 82.1066C78.4997 83.4801 76.8976 85.4324 75.9515 87.7165C75.0054 90.0005 74.7579 92.5139 75.2402 94.9386C75.7225 97.3634 76.913 99.5907 78.6612 101.339C80.4093 103.087 82.6366 104.278 85.0614 104.76C87.4861 105.242 89.9995 104.995 92.2835 104.048C94.5676 103.102 96.5198 101.5 97.8934 99.4446C99.2669 97.389 100 94.9723 100 92.5C100 89.1848 98.683 86.0054 96.3388 83.6612C93.9946 81.317 90.8152 80 87.5 80ZM60 15H15C13.6739 15 12.4021 15.5268 11.4645 16.4645C10.5268 17.4021 10 18.6739 10 20V40H65V20C65 18.6739 64.4732 17.4021 63.5355 16.4645C62.5978 15.5268 61.3261 15 60 15ZM10 80C10.0063 80.7157 10.1683 81.4214 10.4749 82.0681C10.7814 82.7148 11.225 83.287 11.775 83.745C13.5297 79.5661 16.5092 76.0168 20.321 73.5647C24.1328 71.1126 28.598 69.8729 33.1283 70.0087C37.6586 70.1446 42.0415 71.6498 45.6995 74.3258C49.3575 77.0019 52.1189 80.7234 53.62 85H65V50H10V80ZM75 30V73.81C77.7525 71.9635 80.8794 70.7488 84.1565 70.2529C87.4337 69.7571 90.78 69.9923 93.9555 70.9419C97.1311 71.8915 100.057 73.5318 102.524 75.7453C104.991 77.9588 106.938 80.6906 108.225 83.745C108.775 83.287 109.219 82.7148 109.525 82.0681C109.832 81.4214 109.994 80.7157 110 80V50L95 30H75Z" fill="#4F4F4F"/>
</svg>
