<svg width="100" height="90" viewBox="0 0 100 90" fill="none" xmlns="http://www.w3.org/2000/svg">
<path d="M35 77.5C35 79.9723 34.2669 82.389 32.8934 84.4446C31.5199 86.5002 29.5676 88.1024 27.2835 89.0485C24.9995 89.9946 22.4861 90.2421 20.0614 89.7598C17.6366 89.2775 15.4093 88.087 13.6612 86.3388C11.913 84.5907 10.7225 82.3634 10.2402 79.9386C9.75787 77.5139 10.0054 75.0005 10.9515 72.7165C11.8976 70.4324 13.4998 68.4801 15.5554 67.1066C17.611 65.7331 20.0277 65 22.5 65C25.8152 65 28.9946 66.317 31.3388 68.6612C33.683 71.0054 35 74.1848 35 77.5ZM77.5 65C75.0277 65 72.611 65.7331 70.5554 67.1066C68.4997 68.4801 66.8976 70.4324 65.9515 72.7165C65.0054 75.0005 64.7579 77.5139 65.2402 79.9386C65.7225 82.3634 66.913 84.5907 68.6612 86.3388C70.4093 88.087 72.6366 89.2775 75.0614 89.7598C77.4861 90.2421 79.9995 89.9946 82.2835 89.0485C84.5676 88.1024 86.5198 86.5002 87.8934 84.4446C89.2669 82.389 90 79.9723 90 77.5C90 74.1848 88.683 71.0054 86.3388 68.6612C83.9946 66.317 80.8152 65 77.5 65ZM50 0H5C3.67392 0 2.40215 0.526784 1.46447 1.46447C0.526784 2.40215 0 3.67392 0 5V25H55V5C55 3.67392 54.4732 2.40215 53.5355 1.46447C52.5978 0.526784 51.3261 0 50 0ZM0 65C0.00630237 65.7157 0.168343 66.4214 0.474865 67.0681C0.781388 67.7148 1.22504 68.287 1.775 68.745C3.52968 64.5661 6.50919 61.0168 10.321 58.5647C14.1328 56.1126 18.598 54.8729 23.1283 55.0087C27.6586 55.1446 32.0415 56.6498 35.6995 59.3258C39.3575 62.0019 42.1189 65.7234 43.62 70H55V35H0V65ZM65 15V58.81C67.7525 56.9635 70.8794 55.7488 74.1565 55.2529C77.4337 54.7571 80.78 54.9923 83.9555 55.9419C87.1311 56.8915 90.0572 58.5318 92.5242 60.7453C94.9912 62.9588 96.938 65.6906 98.225 68.745C98.775 68.287 99.2186 67.7148 99.5251 67.0681C99.8316 66.4214 99.9937 65.7157 100 65V35L85 15H65Z" fill="#4F4F4F"/>
</svg>
