<svg width="51" height="51" viewBox="0 0 51 51" fill="none" xmlns="http://www.w3.org/2000/svg">
<g clip-path="url(#clip0_685_2085)">
<path d="M32.6773 22.875L28.3202 22.2188L26.3505 18.0625C26.1715 17.6875 25.8432 17.5 25.4851 17.5C25.1568 17.5 24.8285 17.6875 24.6495 18.0625L22.6798 22.2188L18.3227 22.875C17.5468 23 17.2185 24 17.7856 24.5938L20.9489 27.8125L20.2029 32.3438C20.1133 33 20.5908 33.5 21.1578 33.5C21.307 33.5 21.4563 33.4688 21.6055 33.4062L25.4851 31.25L29.3945 33.4062C29.5437 33.4688 29.693 33.5 29.8422 33.5C30.4092 33.5 30.8867 33 30.7971 32.3438L30.0511 27.8125L33.2144 24.5938C33.7815 24 33.4532 23 32.6773 22.875ZM28.5589 27.5312L29.2155 31.5938L25.7238 29.6875C25.5746 29.5938 25.4254 29.5938 25.2762 29.6875L21.7845 31.5938L22.4411 27.5312C22.4709 27.375 22.4112 27.2188 22.3217 27.0938L19.4866 24.2188L23.3961 23.625C23.5453 23.5938 23.6945 23.5 23.7542 23.3438L25.4851 19.625L27.2458 23.3438C27.3055 23.5 27.4547 23.5938 27.6039 23.625L31.5134 24.2188L28.6783 27.0938C28.5888 27.2188 28.5291 27.375 28.5589 27.5312Z" fill="#5A5A5A"/>
</g>
<rect x="0.5" y="0.5" width="50" height="50" rx="3.5" stroke="#5A5A5A"/>
<defs>
<clipPath id="clip0_685_2085">
<rect width="16" height="16" fill="white" transform="translate(17.5 17.5)"/>
</clipPath>
</defs>
</svg>
