<svg width="101" height="96" viewBox="0 0 101 96" fill="none" xmlns="http://www.w3.org/2000/svg">
<path fill-rule="evenodd" clip-rule="evenodd" d="M83.3265 40.72C82.0219 28 74.1103 8 49.6598 8C25.2094 8 17.2978 28 15.9932 40.72C11.4167 42.3709 8.39792 46.5473 8.41807 51.2V56.8C8.41807 62.9856 13.6937 68 20.2015 68C26.7093 68 31.9848 62.9856 31.9848 56.8V51.2C31.9637 46.6478 29.0558 42.5572 24.6203 40.84C25.4619 33.48 29.5861 16 49.6598 16C69.7336 16 73.8157 33.48 74.6573 40.84C70.2308 42.5609 67.3376 46.6542 67.3348 51.2V56.8C67.3531 61.0999 69.9508 65.0131 74.0261 66.88C72.2586 70.04 67.7557 74.32 56.6878 75.6C54.4753 72.4068 50.1949 71.1479 46.4718 72.5956C42.7486 74.0432 40.6236 77.7925 41.4 81.5441C42.1765 85.2957 45.6372 88 49.6598 88C52.8385 87.9833 55.7362 86.2658 57.1507 83.56C75.2044 81.6 80.9698 72.76 82.7794 67.56C87.675 66.0527 90.9675 61.6909 90.9015 56.8V51.2C90.9218 46.5473 87.903 42.3709 83.3265 40.72ZM23.5682 56.8C23.5682 58.5673 22.0609 60 20.2015 60C18.3421 60 16.8348 58.5673 16.8348 56.8V51.2C16.8348 50.0567 17.4765 49.0003 18.5182 48.4287C19.5598 47.8571 20.8432 47.8571 21.8848 48.4287C22.9265 49.0003 23.5682 50.0567 23.5682 51.2V56.8ZM75.7515 51.2C75.7515 49.4327 77.2588 48 79.1182 48C80.9775 48 82.4848 49.4327 82.4848 51.2V56.8C82.4848 58.5673 80.9775 60 79.1182 60C77.2588 60 75.7515 58.5673 75.7515 56.8V51.2Z" fill="#4F4F4F"/>
</svg>
