<svg width="96" height="87" viewBox="0 0 96 87" fill="none" xmlns="http://www.w3.org/2000/svg">
<path d="M74.0141 23.3292C74.0141 23.3046 73.9895 23.2872 73.9801 23.2626C73.8969 23.0896 73.7948 22.9267 73.6768 22.7761C73.6348 22.7276 73.5892 22.682 73.5407 22.64C73.4393 22.551 73.3279 22.475 73.2084 22.4142C73.1599 22.3859 73.1099 22.3599 73.0585 22.3367C72.8826 22.265 72.6944 22.2252 72.504 22.2202L60.3643 21.9914H60.3259L50.8511 21.8147L42.2384 21.6526C41.9206 21.6526 41.6093 21.7402 41.3385 21.9052L23.5739 33.211C23.5254 33.2421 23.4994 33.2906 23.4552 33.3246C23.3676 33.3919 23.288 33.4687 23.217 33.5534C23.1519 33.6301 23.0947 33.7134 23.0469 33.8017C22.997 33.8893 22.9564 33.9827 22.9253 34.079C22.8913 34.1839 22.8674 34.2925 22.8551 34.4033C22.8551 34.4568 22.8225 34.5025 22.8225 34.5575L22.2578 67.7681H22.2585C22.2513 68.2025 22.4193 68.6217 22.724 68.9315C23.0288 69.2413 23.4458 69.4158 23.8802 69.4158H58.0656C58.2821 69.4158 58.4957 69.3724 58.6955 69.2891C58.7099 69.2891 58.723 69.2681 58.7375 69.2602V69.2594C58.9192 69.1791 59.0835 69.0654 59.2239 68.9243C59.2239 68.9163 59.2399 68.9149 59.2486 68.9083L73.6563 53.6405C73.9408 53.3394 74.0993 52.9405 74.0986 52.5264V23.8358C74.0979 23.6635 74.0696 23.4927 74.0146 23.3298L74.0141 23.3292ZM58.0022 33.0293H50.5428L60.6713 25.2455L67.855 25.3802L58.0022 33.0293ZM44.1684 47.9387L41.2822 46.5038H41.2814C41.057 46.3952 40.8101 46.3395 40.5604 46.3417H40.5047C40.2542 46.3475 40.008 46.4126 39.7865 46.5313L37.3917 47.8286V35.4037L51.3376 25.0645L55.4713 25.1427L44.7802 33.3658C44.7512 33.3868 44.7382 33.4194 44.7121 33.444L44.7114 33.4433C44.6795 33.4614 44.6484 33.4824 44.6187 33.5048C44.5724 33.5635 44.5304 33.6265 44.4942 33.6931C44.4283 33.772 44.3711 33.8574 44.3241 33.9486C44.2821 34.0398 44.2502 34.1354 44.2285 34.2324C44.1959 34.3381 44.1749 34.4467 44.1663 34.5567C44.1663 34.5922 44.1453 34.6233 44.1453 34.6602L44.1684 47.9387ZM42.6699 24.9117L46.0282 24.9733L35.2286 32.9757H30.0041L42.6699 24.9117ZM26.0383 36.203H34.1463V50.5477C34.1463 51.1203 34.4475 51.6503 34.939 51.9427C35.4313 52.2352 36.0409 52.2468 36.5433 51.9731L40.5973 49.7761L45.0726 52.0008H45.0733C45.2825 52.1036 45.5127 52.1586 45.7458 52.1629C45.7639 52.1629 45.7784 52.1745 45.7958 52.1745H45.8313H45.832C45.9268 52.1702 46.0217 52.1571 46.1143 52.1354C46.1599 52.126 46.2084 52.1238 46.254 52.1108H46.2533C46.393 52.071 46.527 52.0123 46.6507 51.9363C47.1285 51.6402 47.4181 51.1175 47.4181 50.5558L47.4 36.2741H56.9155L56.4681 66.1748H25.5314L26.0383 36.203ZM59.7493 63.6426L60.1641 35.4543L70.8486 27.1551V51.8778L59.7493 63.6426Z" fill="#333333"/>
<path d="M95.4247 31.3779C95.0967 31.0992 94.6718 30.9624 94.2425 30.9971C93.8139 31.0326 93.4165 31.236 93.1385 31.5639L90.5895 34.5668L90.5888 34.5675C88.7391 25.619 84.1081 17.4833 77.3573 11.3238C70.6073 5.1646 62.0823 1.29719 53.0016 0.272881C43.9213 -0.750756 34.7491 1.12133 26.7963 5.62273C18.8439 10.1234 12.5174 17.0233 8.72112 25.336C8.34902 26.1511 8.70809 27.114 9.52396 27.4862C10.3391 27.8583 11.302 27.4985 11.6741 26.6833C15.1839 18.9987 21.0302 12.6187 28.3805 8.45323C35.7306 4.28837 44.2085 2.55093 52.6046 3.48924C61.0001 4.42818 68.8853 7.99436 75.1349 13.6793C81.3845 19.3642 85.6783 26.8781 87.4041 35.1476L84.1609 33.2487C83.3891 32.8035 82.4032 33.0649 81.9521 33.8329C81.5019 34.601 81.7552 35.5892 82.5197 36.0459L88.7369 39.6895C88.7955 39.7192 88.8556 39.7445 88.9171 39.7655C88.9671 39.7865 89.0142 39.8111 89.0648 39.827C89.2212 39.8799 89.3855 39.9088 89.5513 39.9117C89.7584 39.9088 89.9632 39.8661 90.1544 39.785C90.2036 39.7655 90.2521 39.743 90.2984 39.717C90.3484 39.6909 90.4041 39.6779 90.4526 39.6475C90.58 39.5628 90.6951 39.4607 90.795 39.3442L95.6113 33.6685C95.8915 33.3406 96.029 32.9142 95.9943 32.4842C95.9588 32.0541 95.7539 31.656 95.4246 31.3773L95.4247 31.3779Z" fill="#333333"/>
<path d="M89.7424 46.879C88.8534 46.7682 88.0433 47.398 87.9326 48.2863C86.6483 58.5177 81.47 67.8606 73.4748 74.3712C65.4789 80.883 55.2816 84.0617 45.003 83.248C34.7243 82.4342 25.1525 77.6896 18.2824 70.0008C11.4124 62.3119 7.76808 52.2709 8.11038 41.9644L10.6696 44.8298C11.2661 45.498 12.2912 45.5559 12.9593 44.9594C13.6268 44.3628 13.6854 43.3377 13.0889 42.6696L8.5969 37.6347C8.46443 37.4913 8.30661 37.3726 8.13142 37.2857C7.86573 36.8564 7.41183 36.5777 6.90796 36.5343C6.40483 36.4916 5.91038 36.6899 5.57592 37.0685L0.41937 42.7666V42.7673C-0.181499 43.4312 -0.13083 44.4563 0.533752 45.0578C1.19759 45.6587 2.2227 45.6073 2.82421 44.9434L4.83817 42.7188V42.718C4.68831 53.7928 8.78508 64.5033 16.2864 72.6521C23.7885 80.7993 34.1256 85.7648 45.1752 86.5278C56.2239 87.2915 67.1458 83.7942 75.6968 76.756C84.248 69.7173 89.7787 59.671 91.1528 48.6826C91.2599 47.7958 90.6301 46.99 89.744 46.8793L89.7424 46.879Z" fill="#333333"/>
</svg>
