<svg width="88" height="86" viewBox="0 0 88 86" fill="none" xmlns="http://www.w3.org/2000/svg">
<path d="M28.3301 66.8451C28.3301 66.2922 28.1054 65.7619 27.7059 65.3706C27.3055 64.9792 26.7631 64.7595 26.1969 64.7595H12.7035C11.5256 64.7595 10.5703 65.6935 10.5703 66.845C10.5703 67.9973 11.5257 68.9313 12.7035 68.9313H26.1969C26.7631 68.9313 27.3055 68.7116 27.7059 68.3203C28.1054 67.9289 28.3301 67.3987 28.3301 66.8451Z" fill="black"/>
<path d="M12.7035 70.7466C11.5256 70.7466 10.5703 71.6806 10.5703 72.8321C10.5703 73.9844 11.5257 74.9184 12.7035 74.9184H21.1306C22.3084 74.9184 23.2637 73.9843 23.2637 72.8321C23.2637 71.6806 22.3084 70.7466 21.1306 70.7466H12.7035Z" fill="black"/>
<path d="M26.1878 74.9178C27.0509 74.9178 27.8284 74.4094 28.1589 73.6303C28.4892 72.8505 28.3062 71.9535 27.6961 71.357C27.0859 70.7605 26.1685 70.5823 25.3717 70.9046C24.574 71.2276 24.0547 71.9885 24.0547 72.8316C24.0547 73.3852 24.2794 73.9155 24.6789 74.3069C25.0792 74.6975 25.6216 74.9178 26.1878 74.9178Z" fill="black"/>
<path d="M85.3335 32.6713C84.155 32.6713 83.2004 33.6053 83.2004 34.7576V74.386L76.8 79.3915V36.8431C76.8 35.6908 75.8453 34.7576 74.6668 34.7576C73.4883 34.7576 72.5336 35.6909 72.5336 36.8431V59.0354L58.2404 54.6656C57.5462 54.4554 56.7902 54.6045 56.2345 55.0621C55.6794 55.5167 55.3989 56.2158 55.4882 56.9185L56.1385 62.06L45.4717 58.8373V58.8366C44.3609 58.5376 43.2075 59.1552 42.8675 60.2318C42.5267 61.3092 43.1227 62.455 44.2135 62.8207L58.0805 66.9918C58.2702 67.05 58.4674 67.0812 58.6668 67.0856C59.1705 67.0863 59.6579 66.9125 60.0426 66.5953C60.6021 66.1428 60.8871 65.4438 60.8 64.7396L60.1497 59.6192L72.5338 63.4048V81.686H4.2666V14.9434H13.4295L8.62968 29.9607C8.41465 30.6394 8.56718 31.3778 9.03519 31.9211C9.50022 32.4638 10.2153 32.7387 10.9333 32.6514L16.1922 32.0156L12.8959 42.4442V42.4434C12.5492 43.5433 13.1794 44.7101 14.3044 45.0506C14.5061 45.1262 14.7181 45.1713 14.9332 45.1866C15.8692 45.1859 16.6951 44.5894 16.9711 43.7157L21.2374 30.1585C21.4584 29.4798 21.3096 28.7378 20.8431 28.1908C20.3758 27.6438 19.6563 27.3674 18.9331 27.4576L13.6958 28.0934L17.8988 14.9436H27.8298V42.5382C27.8342 43.2816 28.2427 43.9654 28.902 44.3349C29.5612 44.7045 30.3714 44.7037 31.0292 44.332L38.4005 40.0248L45.739 44.332C46.399 44.7045 47.2123 44.7045 47.8722 44.332C48.5381 43.9559 48.9459 43.259 48.9392 42.5069V14.9439H49.7926H49.7919C50.9704 14.9439 51.9258 14.0106 51.9258 12.8584C51.9258 11.7062 50.9704 10.7729 49.7919 10.7729H6.57057L11.7335 4.5154H52.2671C53.4457 4.5154 54.401 3.5821 54.401 2.42988C54.401 1.27766 53.4457 0.34436 52.2671 0.34436H10.6668C10.0195 0.34436 9.40711 0.63243 9.00309 1.12635L0.469499 11.5549C0.466523 11.576 0.466523 11.5963 0.469499 11.6174C0.420392 11.6793 0.37798 11.7462 0.341521 11.8153L0.245538 11.9819V11.9826C0.215775 12.043 0.191221 12.1063 0.170388 12.1703L0.1064 12.3681V12.5558C0.101191 12.6286 0.101191 12.702 0.1064 12.7748L0 12.8584V83.7724C0 84.3252 0.224707 84.8563 0.624996 85.2469C1.02456 85.6383 1.56771 85.8579 2.1332 85.8579H74.6671C74.8814 85.8558 75.0934 85.8201 75.2966 85.7539H75.403C75.6024 85.6804 75.7891 85.5786 75.958 85.4513L86.6248 77.1083C87.1605 76.7104 87.473 76.0877 87.467 75.4294V34.7581C87.467 34.2046 87.2423 33.6743 86.8421 33.2829C86.4425 32.8915 85.8994 32.6719 85.3339 32.6719L85.3335 32.6713ZM44.7047 14.943V38.856L39.4673 35.8001C38.8073 35.4276 37.9941 35.4276 37.3341 35.8001L32.1288 38.8452V14.9434L44.7047 14.943Z" fill="black"/>
<path d="M74.6663 0.343018C73.3226 0.343018 71.0078 1.38617 71.0078 2.73115L72.2236 17.0281C72.2236 18.3477 73.3174 19.4162 74.6663 19.4162C76.0152 19.4162 77.109 18.3476 77.109 17.0281L78.3247 2.7304C78.3247 1.38537 76.0101 0.343018 74.6663 0.343018Z" fill="black"/>
<path d="M77.0229 23.0657C77.0229 24.3388 75.9678 25.3703 74.6658 25.3703C73.3637 25.3703 72.3086 24.3388 72.3086 23.0657C72.3086 21.7927 73.3637 20.7612 74.6658 20.7612C75.9678 20.7612 77.0229 21.7927 77.0229 23.0657Z" fill="black"/>
</svg>
